<svg width="152" height="125" viewBox="0 0 152 125" fill="none" xmlns="http://www.w3.org/2000/svg">
<path d="M2.08616e-07 78.8V67.04L47.6 48.84V47.16L2.08616e-07 28.96V17.2L58.8 40.86V55.14L2.08616e-07 78.8ZM104.036 97C100.116 97 97.0831 95.9267 94.9364 93.78C92.8831 91.6333 91.8564 88.6933 91.8564 84.96V38.2H71.2764V28.54H91.8564V4.17999H102.916V28.54H125.316V38.2H102.916V83.28C102.916 86.08 104.27 87.48 106.976 87.48H122.236V97H104.036ZM124.191 125V115.2H133.711C136.511 115.2 137.911 113.8 137.911 111V28.54H148.971V112.96C148.971 116.693 147.898 119.633 145.751 121.78C143.698 123.927 140.711 125 136.791 125H124.191ZM143.511 17.9C141.084 17.9 139.031 17.1067 137.351 15.52C135.764 13.9333 134.971 11.9267 134.971 9.5C134.971 6.98 135.764 4.92666 137.351 3.34C139.031 1.75333 141.084 0.959993 143.511 0.959993C145.938 0.959993 147.944 1.75333 149.531 3.34C151.118 4.92666 151.911 6.98 151.911 9.5C151.911 11.9267 151.118 13.9333 149.531 15.52C147.944 17.1067 145.938 17.9 143.511 17.9Z" fill="white"/>
</svg>
